<svg width="35" height="34" viewBox="0 0 35 34" fill="none" xmlns="http://www.w3.org/2000/svg">
<rect x="1" y="1" width="32" height="32" rx="9" fill="#FEF1EB"/>
<rect x="1" y="1" width="32" height="32" rx="9" stroke="#F26522" stroke-width="2"/>
<g clip-path="url(#clip0_2002_314543)">
<path d="M15.5 17.75C15.5 18.1478 15.658 18.5294 15.9393 18.8107C16.2206 19.092 16.6022 19.25 17 19.25C17.3978 19.25 17.7794 19.092 18.0607 18.8107C18.342 18.5294 18.5 18.1478 18.5 17.75C18.5 17.3522 18.342 16.9706 18.0607 16.6893C17.7794 16.408 17.3978 16.25 17 16.25C16.6022 16.25 16.2206 16.408 15.9393 16.6893C15.658 16.9706 15.5 17.3522 15.5 17.75Z" stroke="#F26522" stroke-linecap="round" stroke-linejoin="round"/>
<path d="M14 23.75V23C14 22.6022 14.158 22.2206 14.4393 21.9393C14.7206 21.658 15.1022 21.5 15.5 21.5H18.5C18.8978 21.5 19.2794 21.658 19.5607 21.9393C19.842 22.2206 20 22.6022 20 23V23.75" stroke="#F26522" stroke-linecap="round" stroke-linejoin="round"/>
<path d="M19.25 11.75C19.25 12.1478 19.408 12.5294 19.6893 12.8107C19.9706 13.092 20.3522 13.25 20.75 13.25C21.1478 13.25 21.5294 13.092 21.8107 12.8107C22.092 12.5294 22.25 12.1478 22.25 11.75C22.25 11.3522 22.092 10.9706 21.8107 10.6893C21.5294 10.408 21.1478 10.25 20.75 10.25C20.3522 10.25 19.9706 10.408 19.6893 10.6893C19.408 10.9706 19.25 11.3522 19.25 11.75Z" stroke="#F26522" stroke-linecap="round" stroke-linejoin="round"/>
<path d="M20.75 15.5H22.25C22.6478 15.5 23.0294 15.658 23.3107 15.9393C23.592 16.2206 23.75 16.6022 23.75 17V17.75" stroke="#F26522" stroke-linecap="round" stroke-linejoin="round"/>
<path d="M11.75 11.75C11.75 12.1478 11.908 12.5294 12.1893 12.8107C12.4706 13.092 12.8522 13.25 13.25 13.25C13.6478 13.25 14.0294 13.092 14.3107 12.8107C14.592 12.5294 14.75 12.1478 14.75 11.75C14.75 11.3522 14.592 10.9706 14.3107 10.6893C14.0294 10.408 13.6478 10.25 13.25 10.25C12.8522 10.25 12.4706 10.408 12.1893 10.6893C11.908 10.9706 11.75 11.3522 11.75 11.75Z" stroke="#F26522" stroke-linecap="round" stroke-linejoin="round"/>
<path d="M10.25 17.75V17C10.25 16.6022 10.408 16.2206 10.6893 15.9393C10.9706 15.658 11.3522 15.5 11.75 15.5H13.25" stroke="#F26522" stroke-linecap="round" stroke-linejoin="round"/>
</g>
<rect x="1.5879" y="1.55272" width="32.7693" height="31.1174" rx="8.5" transform="rotate(-0.225572 1.5879 1.55272)" fill="white" fill-opacity="0.6" stroke="#FEF1EB"/>
<defs>
<clipPath id="clip0_2002_314543">
<rect width="18" height="18" fill="white" transform="translate(8 8)"/>
</clipPath>
</defs>
</svg>
